<?xml version="1.0" encoding="UTF-8" standalone="no"?>
<svg
   width="140"
   height="180"
   viewBox="0 0 66.145848 102.65824"
   version="1.1"
   id="svg5"
   sodipodi:docname="infus_selang.svg"
   inkscape:version="1.1.1 (3bf5ae0d25, 2021-09-20)"
   xmlns:inkscape="http://www.inkscape.org/namespaces/inkscape"
   xmlns:sodipodi="http://sodipodi.sourceforge.net/DTD/sodipodi-0.dtd"
   xmlns="http://www.w3.org/2000/svg"
   xmlns:svg="http://www.w3.org/2000/svg">
  <sodipodi:namedview
     id="namedview9"
     pagecolor="#505050"
     bordercolor="#eeeeee"
     borderopacity="1"
     inkscape:pageshadow="0"
     inkscape:pageopacity="0"
     inkscape:pagecheckerboard="0"
     showgrid="false"
     inkscape:zoom="3.1111111"
     inkscape:cx="84.375"
     inkscape:cy="88.875"
     inkscape:window-width="1366"
     inkscape:window-height="745"
     inkscape:window-x="-8"
     inkscape:window-y="-8"
     inkscape:window-maximized="1"
     inkscape:current-layer="layer1"
     inkscape:snap-bbox="true"
     inkscape:bbox-paths="true"
     inkscape:bbox-nodes="true"
     inkscape:snap-bbox-edge-midpoints="true"
     inkscape:snap-bbox-midpoints="true" />
  <defs
     id="defs2">
    <clipPath
       clipPathUnits="userSpaceOnUse"
       id="clipPath1127">
      <g
         id="g1131"
         transform="matrix(1.2619928,0,0,1.271892,29.249081,-41.372514)"
         style="fill:#000000;fill-opacity:1;stroke:none;stroke-width:1.80057;stroke-linecap:round;stroke-miterlimit:4;stroke-dasharray:none;stroke-opacity:1;paint-order:markers stroke fill">
        <path
           id="path1129"
           d="m 15.933397,46.928919 c -4.3696,0 -7.8873779,3.517775 -7.8873779,7.887374 v 43.244388 c 0,4.369599 3.5177779,7.887369 7.8873779,7.887369 h 1.0883 c 0,3.56831 0.42452,6.44095 0.95188,6.44095 h 12.23905 c 0.52736,0 0.95188,-2.87264 0.95188,-6.44095 h 1.08778 c 4.3696,0 7.88738,-3.51777 7.88738,-7.887369 V 54.816293 c 0,-4.369599 -3.51778,-7.887374 -7.88738,-7.887374 z"
           style="fill:#000000;fill-opacity:1;stroke:none;stroke-width:1.80057;stroke-linecap:round;stroke-miterlimit:4;stroke-dasharray:none;stroke-opacity:1;paint-order:markers stroke fill" />
      </g>
    </clipPath>
  </defs>
  <g
     inkscape:label="Layer 1"
     id="layer1"
     inkscape:groupmode="layer">
    <path
       id="vector_tetes"
       style="fill:#00ffff;stroke-width:0.520836;stroke-linecap:round;stroke-linejoin:round;paint-order:stroke fill markers"
       d="m 35.687448,38.057621 c 0,1.602343 -1.298955,2.901297 -2.901297,2.901297 -1.602342,0 -2.901297,-1.298954 -2.901297,-2.901297 0,-1.602342 1.653312,-5.88612 2.901297,-7.879377 1.29228,1.993257 2.901297,6.277035 2.901297,7.879377 z"
       sodipodi:nodetypes="ssscs"
       inkscape:label="vector_tetes" />
    <path
       id="vector_isi_min"
       clip-path="none"
       style="display:inline;fill:#00ffff;stroke-width:3.3994;stroke-linecap:round;stroke-linejoin:round;paint-order:stroke fill markers"
       inkscape:label="vector_isi_min"
       d="m 56.689453,89.734375 0.04883,16.572265 8.892578,8.07031 c 0,7.95778 0.204186,48.61524 0.457032,48.61524 h 6.845703 c 0.252846,0 0.457031,-40.65746 0.457031,-48.61524 l 8.892578,-8.07031 0.04883,-16.572265 z"
       transform="matrix(0.57032356,0,0,0.57032356,-6.8497249,0)" />
    <path
       id="vector_isi_upper"
       clip-path="none"
       style="display:inline;fill:#00ffff;stroke-width:4.08212;stroke-linecap:round;stroke-linejoin:round;paint-order:stroke fill markers"
       inkscape:label="vector_isi_upper"
       d="m 66.087891,17.007812 v 38.519532 h 6.845703 V 17.007812 Z"
       transform="matrix(0.57032356,0,0,0.57032356,-6.8497249,0)" />
    <path
       id="vector_body"
       style="display:inline;fill:none;stroke:#000000;stroke-width:3.99983;stroke-linecap:round;stroke-linejoin:round;stroke-miterlimit:4;stroke-dasharray:none;stroke-opacity:1;paint-order:markers stroke fill"
       inkscape:label="vector_body"
       d="m 72.933594,162.99219 c 0.252846,0 0.457031,-40.65746 0.457031,-48.61524 l 8.892578,-8.07031 0.152344,-50.738281 -9.501953,-0.04102 V 17.007812 h -6.845703 v 38.519532 l -9.501953,0.04102 0.152343,50.738286 8.892578,8.07031 c 0,7.95778 0.204186,48.61523 0.457032,48.61523 z"
       transform="matrix(0.57032356,0,0,0.57032356,-6.8497249,0)"
       sodipodi:nodetypes="ccccccccccccc" />
  </g>
</svg>
